<?xml version="1.0" standalone="no"?>
<!DOCTYPE svg PUBLIC "-//W3C//DTD SVG 20010904//EN"
 "http://www.w3.org/TR/2001/REC-SVG-20010904/DTD/svg10.dtd">
<svg version="1.0" xmlns="http://www.w3.org/2000/svg"
 width="300.000000pt" height="359.000000pt" viewBox="0 0 300.000000 359.000000"
 preserveAspectRatio="xMidYMid meet">
<metadata>
Created by potrace 1.10, written by Peter Selinger 2001-2011
</metadata>
<g transform="translate(0.000000,359.000000) scale(0.100000,-0.100000)"
fill="#000000" stroke="none">
<path d="M548 3308 l-3 -133 -85 -6 c-134 -9 -130 -6 -130 -103 l0 -82 -70
-31 -70 -31 -1 -59 0 -58 -72 -35 -72 -35 -3 -814 c-2 -649 0 -812 10 -808 7
3 49 22 93 41 280 123 726 141 1200 49 72 -14 135 -25 140 -25 6 0 71 12 145
26 477 91 917 73 1194 -50 45 -19 87 -38 94 -41 9 -4 12 161 12 809 l0 814
-75 37 -75 37 0 56 0 56 -70 31 -70 31 0 82 c0 97 4 94 -130 103 l-85 6 -3
133 -3 132 -33 0 c-155 0 -415 -91 -580 -203 -77 -52 -206 -176 -264 -252 -25
-33 -48 -64 -52 -68 -4 -4 -25 19 -48 51 -52 75 -181 201 -263 259 -83 58
-214 124 -314 157 -83 28 -224 56 -281 56 l-33 0 -3 -132z m151 77 c287 -55
540 -210 711 -436 l60 -80 0 -800 c0 -439 -4 -799 -8 -799 -4 0 -15 13 -24 28
-31 51 -148 171 -226 230 -147 110 -343 195 -526 227 -49 8 -93 15 -97 15 -5
0 -9 360 -9 815 0 792 1 815 19 815 10 0 55 -7 100 -15z m1691 -799 l0 -815
-47 -6 c-314 -43 -618 -211 -783 -434 -25 -33 -48 -60 -52 -61 -5 0 -8 359 -8
799 l0 798 51 69 c170 229 411 383 699 444 47 10 97 19 113 19 l27 1 0 -814z
m-2058 -328 l3 -673 30 2 c17 1 69 5 116 9 174 14 380 -36 601 -147 80 -40
218 -124 218 -133 0 -2 -57 16 -127 40 -206 70 -309 88 -508 88 -182 0 -248
-10 -368 -59 -33 -13 -64 -22 -69 -19 -10 6 -11 1505 0 1520 7 13 69 42 89 43
10 1 13 -143 15 -671z m2365 657 c21 -9 41 -21 45 -28 10 -16 10 -1514 0
-1521 -5 -3 -36 6 -69 19 -120 49 -186 59 -368 59 -196 0 -301 -18 -495 -84
l-115 -39 37 33 c57 50 243 142 375 185 147 48 269 66 383 57 47 -4 99 -8 115
-9 l30 -2 3 673 c1 450 6 672 12 672 6 0 27 -7 47 -15z"/>
<path d="M282 442 c-9 -7 -12 -51 -10 -188 l3 -179 43 -3 42 -3 0 110 c0 60 4
112 9 115 4 3 21 -26 36 -64 28 -69 29 -70 65 -70 36 0 37 1 65 70 15 38 32
67 36 64 5 -3 9 -54 9 -115 l0 -109 45 0 45 0 -2 187 -3 188 -45 3 c-25 1 -50
-1 -56 -5 -6 -5 -28 -45 -49 -90 -21 -46 -41 -83 -44 -83 -3 0 -22 37 -41 81
-19 44 -43 85 -52 90 -21 11 -79 12 -96 1z"/>
<path d="M875 442 c-14 -10 -145 -354 -139 -364 3 -4 23 -8 45 -8 38 0 42 3
56 40 l16 40 68 0 69 0 17 -37 c17 -35 22 -38 66 -41 26 -2 47 0 47 5 0 19
-134 359 -144 365 -6 4 -29 8 -51 8 -22 0 -45 -4 -50 -8z m73 -162 l21 -60
-45 0 c-24 0 -44 2 -44 5 0 8 41 115 45 115 2 0 12 -27 23 -60z"/>
<path d="M1192 442 c-9 -7 -12 -51 -10 -188 l3 -179 40 0 40 0 5 124 5 124 74
-116 c40 -64 79 -121 86 -127 8 -6 31 -10 52 -8 l38 3 3 182 2 183 -24 6 c-57
14 -61 7 -66 -105 l-5 -105 -64 98 c-35 53 -72 101 -82 107 -22 11 -79 12 -97
1z"/>
<path d="M1627 443 c-14 -13 -7 -262 8 -299 40 -95 261 -99 310 -5 12 25 15
58 13 169 -3 135 -3 137 -27 140 -12 2 -34 1 -47 -2 -24 -6 -24 -7 -24 -140 0
-151 -7 -166 -73 -166 -58 0 -67 22 -67 171 0 106 -3 128 -16 133 -21 8 -69 8
-77 -1z"/>
<path d="M2158 438 c-17 -14 -149 -354 -140 -363 3 -3 24 -5 47 -5 40 0 43 2
58 40 l15 40 70 0 69 0 16 -40 c15 -39 17 -40 61 -40 30 0 46 4 46 13 0 23
-131 351 -143 359 -19 12 -82 9 -99 -4z m76 -162 c9 -27 16 -51 16 -53 0 -2
-20 -3 -44 -3 l-45 0 21 61 c11 33 24 57 28 52 4 -4 15 -30 24 -57z"/>
<path d="M2472 442 c-9 -6 -12 -51 -10 -188 l3 -179 135 0 135 0 3 38 3 37
-90 0 -90 0 -3 148 -3 147 -35 3 c-19 1 -41 -2 -48 -6z"/>
</g>
</svg>
