<?xml version="1.0" standalone="no"?>
<!DOCTYPE svg PUBLIC "-//W3C//DTD SVG 20010904//EN"
 "http://www.w3.org/TR/2001/REC-SVG-20010904/DTD/svg10.dtd">
<svg version="1.0" xmlns="http://www.w3.org/2000/svg"
 width="300.000000pt" height="359.000000pt" viewBox="0 0 300.000000 359.000000"
 preserveAspectRatio="xMidYMid meet">
<metadata>
Created by potrace 1.10, written by Peter Selinger 2001-2011
</metadata>
<g transform="translate(0.000000,359.000000) scale(0.100000,-0.100000)"
fill="#000000" stroke="none">
<path d="M1340 3581 c-242 -26 -493 -121 -704 -268 -110 -77 -297 -267 -375
-381 -193 -285 -283 -629 -253 -970 18 -209 59 -358 148 -538 327 -671 1096
-996 1817 -769 113 35 251 104 370 182 130 85 327 280 410 405 117 176 207
403 237 599 8 50 11 152 7 295 -4 197 -7 229 -31 319 -68 254 -189 472 -361
653 -234 246 -482 386 -802 451 -114 24 -344 34 -463 22z m416 -515 c41 -19
55 -33 73 -68 55 -115 5 -250 -115 -309 -58 -29 -69 -31 -152 -28 -79 4 -93 7
-125 32 -50 38 -67 75 -67 147 0 111 61 193 173 231 75 26 151 24 213 -5z
m-51 -683 c31 -34 39 -76 31 -162 -6 -63 -19 -119 -101 -426 -69 -261 -77
-296 -71 -321 4 -16 14 -24 27 -24 25 0 151 59 199 92 l34 25 29 -40 30 -40
-59 -54 c-141 -127 -334 -236 -482 -273 -96 -24 -142 -17 -183 26 -22 24 -24
33 -24 132 0 70 6 130 17 172 46 174 129 529 131 560 2 35 2 35 -37 33 -21 -2
-79 -23 -130 -48 l-91 -45 -17 23 c-34 42 -33 58 3 89 113 93 346 226 479 271
139 47 178 49 215 10z"/>
<path d="M964 431 c-159 -41 -178 -294 -27 -357 49 -21 146 -18 193 6 61 31
84 72 88 157 5 86 -19 139 -78 172 -41 23 -129 34 -176 22z m118 -81 c64 -50
51 -193 -20 -218 -75 -26 -122 20 -122 118 0 55 3 65 29 91 35 35 77 38 113 9z"/>
<path d="M2775 431 c-72 -19 -105 -54 -105 -114 0 -57 40 -90 134 -111 78 -18
99 -37 72 -65 -22 -22 -104 -18 -154 8 -23 11 -44 21 -47 21 -3 0 -5 -19 -5
-43 0 -40 3 -44 33 -55 52 -19 165 -15 214 7 73 34 94 108 46 161 -21 23 -46
34 -102 48 -84 20 -109 43 -76 68 25 19 108 13 154 -10 l31 -17 0 45 c0 38 -3
45 -25 50 -44 11 -139 15 -170 7z"/>
<path d="M92 288 c-29 -79 -57 -152 -62 -163 -27 -60 -25 -65 25 -65 43 0 47
2 61 35 l14 35 74 0 73 0 9 -32 c8 -29 14 -33 48 -36 21 -2 44 -1 51 2 9 3 -6
53 -55 183 l-67 178 -60 3 -59 3 -52 -143z m115 -76 c-48 -4 -53 0 -39 35 6
15 17 42 23 58 l11 30 22 -60 21 -60 -38 -3z"/>
<path d="M452 248 l3 -183 100 -3 c119 -4 164 8 200 50 43 51 25 123 -38 152
-9 5 -9 7 1 12 7 3 19 19 28 36 13 25 13 35 3 59 -19 48 -53 59 -184 59 l-115
0 2 -182z m197 94 c17 -31 -5 -52 -54 -52 -45 0 -45 0 -45 35 0 35 0 35 45 35
32 0 47 -5 54 -18z m15 -138 c37 -36 3 -74 -66 -74 l-48 0 0 45 0 45 49 0 c32
0 55 -6 65 -16z"/>
<path d="M1292 292 c3 -153 11 -176 71 -212 23 -15 50 -20 100 -20 75 0 114
15 146 56 19 24 21 40 21 170 l0 144 -45 0 -45 0 0 -126 c0 -69 -5 -134 -11
-145 -13 -25 -53 -41 -85 -33 -42 11 -54 50 -54 184 l0 120 -51 0 -51 0 4
-138z"/>
<path d="M1690 395 l0 -35 55 0 54 0 3 -147 3 -148 47 -3 47 -3 3 148 3 148
58 3 57 3 0 34 0 35 -165 0 -165 0 0 -35z"/>
<path d="M2260 290 c0 -160 8 -186 67 -214 49 -23 159 -21 200 4 61 37 68 59
68 210 l0 135 -47 3 -48 3 0 -123 c0 -78 -5 -132 -13 -147 -17 -33 -59 -46
-94 -29 l-28 13 -5 140 -5 140 -47 3 -48 3 0 -141z"/>
</g>
</svg>
