<?xml version="1.0" standalone="no"?>
<!DOCTYPE svg PUBLIC "-//W3C//DTD SVG 20010904//EN"
 "http://www.w3.org/TR/2001/REC-SVG-20010904/DTD/svg10.dtd">
<svg version="1.0" xmlns="http://www.w3.org/2000/svg"
 width="300.000000pt" height="359.000000pt" viewBox="0 0 300.000000 359.000000"
 preserveAspectRatio="xMidYMid meet">
<metadata>
Created by potrace 1.10, written by Peter Selinger 2001-2011
</metadata>
<g transform="translate(0.000000,359.000000) scale(0.100000,-0.100000)"
fill="#000000" stroke="none">
<path d="M1418 3514 c-238 -27 -439 -98 -629 -222 -73 -48 -89 -66 -89 -99 0
-16 191 -337 237 -400 31 -43 70 -43 132 -3 229 146 501 176 758 81 188 -69
361 -228 452 -416 72 -148 86 -212 85 -380 -1 -127 -4 -148 -32 -231 -53 -159
-109 -250 -223 -360 -145 -139 -272 -200 -481 -231 -104 -15 -114 -15 -233 5
-68 12 -132 25 -142 30 -10 5 -45 22 -78 37 -33 14 -81 40 -107 57 -71 45
-103 38 -149 -32 -64 -97 -197 -314 -209 -342 -20 -43 -6 -70 59 -116 162
-114 404 -205 612 -232 452 -56 884 93 1204 415 148 148 255 315 333 515 92
237 108 607 38 867 -69 254 -183 450 -376 643 -243 244 -507 371 -860 415
-143 17 -145 17 -302 -1z"/>
<path d="M368 2648 c-28 -22 -368 -542 -368 -563 0 -21 312 -498 358 -547 l26
-28 248 0 c239 0 249 1 269 21 33 33 20 70 -66 199 l-77 115 504 5 c546 5 535
4 596 63 126 120 89 325 -70 391 -32 14 -108 16 -533 16 -272 0 -495 2 -495 5
0 2 36 59 80 126 45 67 80 131 80 145 0 13 -9 33 -20 44 -19 19 -33 20 -268
20 -183 0 -252 -3 -264 -12z m1352 -522 c6 -8 10 -25 8 -38 -3 -23 -4 -23
-208 -29 -113 -3 -451 -7 -752 -8 l-547 -1 -6 21 c-16 49 -6 51 412 59 735 13
1079 12 1093 -4z"/>
<path d="M330 245 l0 -185 140 0 140 0 0 35 0 35 -90 0 -90 0 0 150 0 150 -50
0 -50 0 0 -185z"/>
<path d="M745 414 c-48 -26 -66 -46 -86 -92 -41 -95 -7 -202 80 -250 59 -34
181 -24 236 20 89 70 83 232 -11 304 -33 25 -47 29 -113 32 -56 2 -84 -2 -106
-14z m159 -79 c44 -47 43 -139 -2 -187 -79 -85 -195 32 -147 148 20 50 40 64
87 64 29 0 45 -7 62 -25z"/>
<path d="M1214 417 c-76 -29 -114 -87 -114 -171 0 -87 28 -138 95 -174 38 -20
174 -22 228 -4 l37 14 0 89 0 89 -91 0 -90 0 3 -32 c3 -30 6 -33 41 -36 36 -3
38 -5 35 -35 -3 -31 -4 -32 -51 -31 -63 1 -97 32 -104 98 -10 88 32 136 119
136 24 0 60 -9 81 -20 20 -11 39 -20 42 -20 3 0 5 20 5 44 0 43 0 44 -44 55
-57 14 -152 13 -192 -2z"/>
<path d="M1625 413 c-51 -27 -74 -55 -92 -109 -52 -167 99 -301 270 -240 50
18 76 42 98 91 47 102 2 228 -94 264 -42 16 -147 13 -182 -6z m152 -68 c29
-20 47 -83 39 -129 -17 -90 -98 -125 -157 -67 -26 26 -29 36 -29 89 0 50 4 66
26 91 20 24 34 31 63 31 20 0 46 -7 58 -15z"/>
<path d="M1990 298 c0 -107 3 -140 18 -167 24 -49 60 -71 123 -78 69 -7 135
11 171 47 l28 28 0 152 0 151 -47 -3 -48 -3 -3 -135 c-3 -150 -11 -170 -67
-170 -64 0 -70 13 -73 169 l-4 141 -49 0 -49 0 0 -132z"/>
<path d="M2390 390 l0 -40 60 0 60 0 0 -145 0 -145 50 0 50 0 0 145 0 145 55
0 55 0 0 40 0 40 -165 0 -165 0 0 -40z"/>
</g>
</svg>
