<?xml version="1.0" standalone="no"?>
<!DOCTYPE svg PUBLIC "-//W3C//DTD SVG 20010904//EN"
 "http://www.w3.org/TR/2001/REC-SVG-20010904/DTD/svg10.dtd">
<svg version="1.0" xmlns="http://www.w3.org/2000/svg"
 width="300.000000pt" height="300.000000pt" viewBox="0 0 300.000000 300.000000"
 preserveAspectRatio="xMidYMid meet">
<metadata>
Created by potrace 1.10, written by Peter Selinger 2001-2011
</metadata>
<g transform="translate(0.000000,300.000000) scale(0.100000,-0.100000)"
fill="#000000" stroke="none">
<path d="M310 2986 c-118 -25 -226 -113 -278 -224 l-27 -57 -3 -1150 c-2 -797
1 -1170 8 -1214 29 -171 161 -302 331 -331 43 -7 440 -9 1214 -8 l1150 3 57
27 c71 33 142 98 180 165 16 28 35 54 43 57 13 5 15 167 15 1225 l0 1219 -36
70 c-59 118 -164 198 -289 221 -87 16 -2290 14 -2365 -3z m2109 -620 c39 -20
63 -61 65 -110 3 -53 -10 -82 -49 -106 -32 -20 -54 -20 -939 -20 -1001 0 -948
-3 -980 64 -21 45 -20 74 4 113 36 59 18 58 610 63 1184 11 1259 11 1289 -4z
m11 -762 c78 -47 80 -154 4 -205 -28 -18 -56 -19 -934 -19 -878 0 -906 1 -934
19 -38 25 -55 57 -55 101 0 44 17 76 55 101 28 18 56 19 932 19 819 0 907 -2
932 -16z m18 -762 c17 -16 34 -41 37 -55 11 -42 -15 -108 -52 -133 -31 -21
-37 -21 -926 -28 -969 -8 -943 -9 -981 45 -41 58 -24 142 36 179 32 20 48 20
944 20 l912 0 30 -28z"/>
</g>
</svg>
