<?xml version="1.0" standalone="no"?>
<!DOCTYPE svg PUBLIC "-//W3C//DTD SVG 20010904//EN"
 "http://www.w3.org/TR/2001/REC-SVG-20010904/DTD/svg10.dtd">
<svg version="1.0" xmlns="http://www.w3.org/2000/svg"
 width="300.000000pt" height="359.000000pt" viewBox="0 0 300.000000 359.000000"
 preserveAspectRatio="xMidYMid meet">
<metadata>
Created by potrace 1.10, written by Peter Selinger 2001-2011
</metadata>
<g transform="translate(0.000000,359.000000) scale(0.100000,-0.100000)"
fill="#000000" stroke="none">
<path d="M1395 3555 c-291 -40 -532 -156 -742 -358 -407 -390 -560 -972 -405
-1532 126 -456 471 -829 896 -970 153 -51 244 -65 407 -65 213 0 365 34 546
121 194 93 326 196 479 376 151 177 276 456 320 718 34 195 21 441 -32 650
-88 343 -318 670 -597 851 -182 118 -345 178 -565 209 -122 17 -182 17 -307 0z
m336 -141 c570 -97 1000 -586 1049 -1193 34 -426 -104 -815 -391 -1102 -416
-413 -1021 -473 -1503 -146 -100 68 -261 231 -332 338 -68 102 -138 244 -172
349 -18 57 -24 81 -39 150 -30 143 -28 457 5 595 130 547 531 936 1047 1015
87 13 238 11 336 -6z"/>
<path d="M1380 3314 c-559 -96 -971 -611 -971 -1214 0 -286 83 -543 250 -773
175 -241 423 -394 731 -452 79 -15 213 -16 305 -2 478 74 843 423 967 927 20
83 23 119 23 295 0 176 -3 212 -24 300 -13 55 -27 105 -31 110 -4 6 -10 24
-14 40 -11 47 -103 223 -154 295 -58 82 -171 200 -242 255 -241 184 -558 267
-840 219z m362 -783 c153 -76 228 -217 228 -431 0 -156 -40 -268 -124 -352
-160 -160 -454 -155 -607 9 -76 81 -108 167 -116 310 -14 246 81 413 272 482
51 18 77 21 170 18 101 -3 116 -6 177 -36z"/>
<path d="M1465 2441 c-79 -21 -137 -71 -174 -150 -21 -47 -26 -74 -29 -168 -5
-129 16 -212 68 -275 75 -91 238 -122 346 -66 109 57 157 152 157 313 1 118
-12 171 -59 242 -45 70 -109 103 -208 108 -39 3 -84 1 -101 -4z"/>
<path d="M933 3486 c-407 -152 -732 -512 -858 -951 -50 -172 -59 -240 -59
-440 1 -197 13 -286 62 -455 120 -406 432 -760 804 -913 124 -51 142 -53 53
-5 -199 107 -405 291 -523 468 -107 161 -193 358 -236 540 -8 36 -23 132 -32
213 -15 139 -15 159 0 304 19 175 49 301 106 448 127 324 374 607 666 762 46
25 84 47 84 49 0 2 -1 4 -2 3 -2 0 -31 -11 -65 -23z"/>
<path d="M495 413 c-46 -24 -66 -45 -86 -88 -34 -73 -16 -180 38 -227 49 -45
155 -60 221 -33 78 33 112 86 112 175 0 89 -35 146 -106 176 -44 19 -141 17
-179 -3z m156 -79 c21 -22 24 -35 24 -94 0 -59 -3 -72 -24 -94 -34 -36 -89
-36 -124 0 -45 45 -48 135 -6 188 29 37 95 37 130 0z"/>
<path d="M840 398 c7 -29 24 -88 82 -296 l12 -42 56 0 56 0 29 110 c16 60 32
110 35 110 4 0 12 -19 19 -42 7 -24 21 -73 32 -110 l21 -68 53 0 c61 0 53 -13
100 165 15 55 33 119 41 143 20 60 19 62 -31 62 -54 0 -55 -2 -85 -135 -12
-50 -23 -97 -27 -105 -3 -8 -20 41 -37 110 l-32 125 -50 0 -49 0 -35 -124
c-38 -138 -37 -139 -72 19 l-24 105 -51 3 -51 3 8 -33z"/>
<path d="M1467 423 c-4 -3 -7 -87 -7 -185 l0 -178 45 0 44 0 3 122 3 122 79
-122 79 -122 49 0 48 0 0 185 0 185 -45 0 -45 0 0 -100 c0 -55 -3 -100 -7 -99
-5 0 -37 45 -72 100 l-63 99 -52 0 c-29 0 -56 -3 -59 -7z"/>
<path d="M1910 423 c-1 -5 -2 -88 -3 -185 l-2 -178 138 0 137 0 0 35 0 35 -90
0 -90 0 0 45 0 45 85 0 85 0 0 35 0 34 -82 3 c-82 3 -83 3 -86 31 l-3 27 90 0
91 0 0 40 0 40 -135 0 c-74 0 -135 -3 -135 -7z"/>
<path d="M2267 423 c-4 -3 -7 -87 -7 -185 l0 -178 50 0 50 0 0 65 c0 62 1 65
24 65 18 0 38 -17 76 -65 l52 -65 59 0 59 0 -62 76 -63 76 26 22 c82 66 55
173 -48 190 -51 8 -208 8 -216 -1z m187 -73 c18 -7 26 -17 26 -34 0 -33 -35
-56 -82 -56 l-38 0 0 50 0 50 34 0 c19 0 46 -4 60 -10z"/>
</g>
</svg>
