<?xml version="1.0" standalone="no"?>
<!DOCTYPE svg PUBLIC "-//W3C//DTD SVG 20010904//EN"
 "http://www.w3.org/TR/2001/REC-SVG-20010904/DTD/svg10.dtd">
<svg version="1.0" xmlns="http://www.w3.org/2000/svg"
 width="300.000000pt" height="359.000000pt" viewBox="0 0 300.000000 359.000000"
 preserveAspectRatio="xMidYMid meet">
<metadata>
Created by potrace 1.10, written by Peter Selinger 2001-2011
</metadata>
<g transform="translate(0.000000,359.000000) scale(0.100000,-0.100000)"
fill="#000000" stroke="none">
<path d="M1387 3554 c-310 -42 -556 -170 -783 -406 -272 -284 -414 -646 -414
-1053 0 -713 464 -1313 1119 -1445 185 -38 431 -24 631 35 62 19 242 103 304
143 335 215 571 575 648 992 25 136 29 393 9 505 -36 193 -80 331 -152 471
-145 286 -356 497 -638 638 -137 70 -225 95 -407 121 -126 18 -184 17 -317 -1z
m331 -139 c134 -22 240 -56 353 -113 134 -68 219 -130 327 -240 353 -356 476
-893 321 -1402 -30 -97 -121 -280 -186 -373 -74 -105 -220 -250 -320 -317
-212 -141 -410 -202 -658 -202 -207 -1 -348 32 -526 122 -128 64 -195 114
-315 234 -193 192 -306 400 -371 681 -15 65 -18 120 -17 295 0 231 9 291 71
470 71 207 215 422 372 557 280 239 615 340 949 288z"/>
<path d="M1360 3310 c-182 -37 -287 -82 -435 -185 -141 -98 -255 -224 -345
-381 -138 -238 -195 -510 -164 -783 36 -313 152 -563 358 -767 177 -175 364
-272 614 -319 71 -13 198 -16 279 -6 576 70 1014 579 1027 1191 9 430 -179
819 -512 1063 -231 169 -554 243 -822 187z m628 -782 l3 -128 -146 0 -145 0 0
-420 0 -420 -155 0 -155 0 0 420 0 420 -140 0 -140 0 0 130 0 130 438 -2 437
-3 3 -127z"/>
<path d="M941 3490 c-253 -91 -492 -279 -657 -516 -126 -181 -193 -340 -245
-580 -32 -145 -32 -444 -1 -594 104 -500 418 -900 842 -1073 133 -54 143 -53
39 5 -86 48 -155 94 -229 153 -55 43 -192 188 -243 257 -174 236 -267 484
-303 803 -15 139 -15 161 0 296 30 281 99 489 229 699 91 146 226 297 342 384
109 82 134 98 220 143 87 46 89 53 6 23z"/>
<path d="M500 390 l0 -40 60 0 60 0 0 -145 0 -145 45 0 45 0 0 145 0 144 63 3
62 3 0 35 0 35 -167 3 -168 2 0 -40z"/>
<path d="M975 413 c-68 -36 -105 -96 -105 -173 0 -123 94 -201 226 -187 98 10
159 74 170 176 8 68 -35 148 -96 179 -54 27 -149 30 -195 5z m156 -79 c21 -22
24 -35 24 -96 0 -64 -2 -72 -28 -94 -39 -33 -86 -32 -120 4 -48 50 -45 161 6
197 35 24 90 19 118 -11z"/>
<path d="M1347 423 c-4 -3 -7 -87 -7 -185 l0 -178 50 0 50 0 0 59 c0 71 17 92
46 58 11 -12 36 -43 55 -69 l34 -47 63 -1 64 0 -49 59 c-90 109 -103 126 -103
136 0 6 23 35 51 65 28 30 59 67 70 83 l20 27 -55 0 -54 0 -63 -77 c-34 -43
-66 -79 -70 -81 -5 -2 -9 33 -9 77 l0 81 -43 0 c-24 0 -47 -3 -50 -7z"/>
<path d="M1750 245 l0 -185 140 0 140 0 0 35 0 35 -90 0 -90 0 0 45 0 45 80 0
80 0 0 35 0 35 -80 0 -80 0 0 30 0 29 88 3 87 3 0 35 0 35 -137 3 -138 3 0
-186z"/>
<path d="M2107 423 c-4 -3 -7 -87 -7 -185 l0 -178 50 0 50 0 0 123 0 122 58
-90 c32 -50 67 -105 77 -122 18 -30 24 -33 67 -33 l48 0 0 186 0 185 -42 -3
-43 -3 -5 -99 -5 -99 -65 101 -65 102 -56 0 c-31 0 -59 -3 -62 -7z"/>
</g>
</svg>
